{
    "asset" : {
        "generator" : "Khronos glTF Blender I/O v1.2.75",
        "version" : "2.0"
    },
    "extensionsUsed" : [
        "KHR_materials_unlit"
    ],
    "scene" : 0,
    "scenes" : [
        {
            "name" : "Scene",
            "nodes" : [
                0,
                1,
                2,
                3
            ]
        }
    ],
    "nodes" : [
        {
            "name" : "Light",
            "rotation" : [
                0.16907575726509094,
                0.7558803558349609,
                -0.27217137813568115,
                0.570947527885437
            ],
            "translation" : [
                -3.414468765258789,
                4.6518120765686035,
                11.656330108642578
            ]
        },
        {
            "name" : "Camera",
            "rotation" : [
                -0.2953820526599884,
                0.05573350563645363,
                0.10415952652692795,
                -0.9480474591255188
            ],
            "translation" : [
                8.929393768310547,
                25.19147491455078,
                -4.377329349517822
            ]
        },
        {
            "name" : "luz interior",
            "rotation" : [
                0.31919899582862854,
                -0.1715267449617386,
                0.05039830133318901,
                0.9306721091270447
            ],
            "translation" : [
                0.1488092988729477,
                0.6402685046195984,
                0.5620247721672058
            ]
        },
        {
            "mesh" : 0,
            "name" : "Ion",
            "rotation" : [
                -0.7286120057106018,
                0.12592671811580658,
                -0.1269010603427887,
                -0.6611831188201904
            ],
            "scale" : [
                1.4700000286102295,
                1,
                1.7999999523162842
            ],
            "translation" : [
                -1.6348230838775635,
                -1.1494557857513428,
                1.5735275745391846
            ]
        }
    ],
    "materials" : [
        {
            "doubleSided" : true,
            "extensions" : {
                "KHR_materials_unlit" : {}
            },
            "name" : "Material.007",
            "pbrMetallicRoughness" : {
                "baseColorFactor" : [
                    0.05448029562830925,
                    0.017641954123973846,
                    0.0012141093611717224,
                    1
                ]
            }
        },
        {
            "doubleSided" : true,
            "emissiveFactor" : [
                0,
                0,
                0
            ],
            "name" : "Material",
            "pbrMetallicRoughness" : {
                "baseColorFactor" : [
                    0.8227860331535339,
                    0.5209954977035522,
                    0.2541521489620209,
                    1
                ],
                "metallicFactor" : 0,
                "roughnessFactor" : 0.4000000059604645
            }
        },
        {
            "doubleSided" : true,
            "extensions" : {
                "KHR_materials_unlit" : {}
            },
            "name" : "Material.004",
            "pbrMetallicRoughness" : {
                "baseColorFactor" : [
                    0.008075856603682041,
                    0.005583244375884533,
                    0.0022019611205905676,
                    1
                ]
            }
        },
        {
            "doubleSided" : true,
            "emissiveFactor" : [
                0,
                0,
                0
            ],
            "name" : "Material.006",
            "pbrMetallicRoughness" : {
                "baseColorFactor" : [
                    0.21223080158233643,
                    0.07818739116191864,
                    0.012286495417356491,
                    1
                ],
                "metallicFactor" : 0,
                "roughnessFactor" : 0.5
            }
        },
        {
            "doubleSided" : true,
            "emissiveFactor" : [
                0,
                0,
                0
            ],
            "name" : "Material.005",
            "pbrMetallicRoughness" : {
                "baseColorFactor" : [
                    0.814041793346405,
                    0.5886900424957275,
                    0.3884393572807312,
                    1
                ],
                "metallicFactor" : 0,
                "roughnessFactor" : 0.5
            }
        }
    ],
    "meshes" : [
        {
            "name" : "Text",
            "primitives" : [
                {
                    "attributes" : {
                        "POSITION" : 0,
                        "NORMAL" : 1,
                        "TEXCOORD_0" : 2
                    },
                    "indices" : 3,
                    "material" : 0
                },
                {
                    "attributes" : {
                        "POSITION" : 4,
                        "NORMAL" : 5,
                        "TEXCOORD_0" : 6
                    },
                    "indices" : 7,
                    "material" : 1
                },
                {
                    "attributes" : {
                        "POSITION" : 8,
                        "NORMAL" : 9,
                        "TEXCOORD_0" : 10
                    },
                    "indices" : 11,
                    "material" : 2
                },
                {
                    "attributes" : {
                        "POSITION" : 12,
                        "NORMAL" : 13,
                        "TEXCOORD_0" : 14
                    },
                    "indices" : 15,
                    "material" : 3
                },
                {
                    "attributes" : {
                        "POSITION" : 16,
                        "NORMAL" : 17,
                        "TEXCOORD_0" : 18
                    },
                    "indices" : 19,
                    "material" : 4
                }
            ]
        }
    ],
    "accessors" : [
        {
            "bufferView" : 0,
            "componentType" : 5126,
            "count" : 1540,
            "max" : [
                1.674119234085083,
                0.009999997913837433,
                0.04906836897134781
            ],
            "min" : [
                0.03600004315376282,
                -1.9940084218978882,
                -1.5356919765472412
            ],
            "type" : "VEC3"
        },
        {
            "bufferView" : 1,
            "componentType" : 5126,
            "count" : 1540,
            "type" : "VEC3"
        },
        {
            "bufferView" : 2,
            "componentType" : 5126,
            "count" : 1540,
            "type" : "VEC2"
        },
        {
            "bufferView" : 3,
            "componentType" : 5123,
            "count" : 3792,
            "type" : "SCALAR"
        },
        {
            "bufferView" : 4,
            "componentType" : 5126,
            "count" : 248,
            "max" : [
                1.650033712387085,
                -0.01370704174041748,
                0.07423973083496094
            ],
            "min" : [
                0.017380475997924805,
                -3.013707160949707,
                -2.147982597351074
            ],
            "type" : "VEC3"
        },
        {
            "bufferView" : 5,
            "componentType" : 5126,
            "count" : 248,
            "type" : "VEC3"
        },
        {
            "bufferView" : 6,
            "componentType" : 5126,
            "count" : 248,
            "type" : "VEC2"
        },
        {
            "bufferView" : 7,
            "componentType" : 5123,
            "count" : 468,
            "type" : "SCALAR"
        },
        {
            "bufferView" : 8,
            "componentType" : 5126,
            "count" : 768,
            "max" : [
                1.6310193538665771,
                -0.06399446725845337,
                0.10852769762277603
            ],
            "min" : [
                0.03617493808269501,
                -2.9946188926696777,
                0.059075042605400085
            ],
            "type" : "VEC3"
        },
        {
            "bufferView" : 9,
            "componentType" : 5126,
            "count" : 768,
            "type" : "VEC3"
        },
        {
            "bufferView" : 10,
            "componentType" : 5126,
            "count" : 768,
            "type" : "VEC2"
        },
        {
            "bufferView" : 11,
            "componentType" : 5123,
            "count" : 1488,
            "type" : "SCALAR"
        },
        {
            "bufferView" : 12,
            "componentType" : 5126,
            "count" : 994,
            "max" : [
                1.669567584991455,
                -1.341740369796753,
                -1.1914645433425903
            ],
            "min" : [
                1.1246718168258667,
                -2.341740369796753,
                -1.7470201253890991
            ],
            "type" : "VEC3"
        },
        {
            "bufferView" : 13,
            "componentType" : 5126,
            "count" : 994,
            "type" : "VEC3"
        },
        {
            "bufferView" : 14,
            "componentType" : 5126,
            "count" : 994,
            "type" : "VEC2"
        },
        {
            "bufferView" : 15,
            "componentType" : 5123,
            "count" : 1668,
            "type" : "SCALAR"
        },
        {
            "bufferView" : 16,
            "componentType" : 5126,
            "count" : 192,
            "max" : [
                1.6713309288024902,
                -1.4333815574645996,
                -1.2470316886901855
            ],
            "min" : [
                1.632397174835205,
                -2.233381509780884,
                -1.6914761066436768
            ],
            "type" : "VEC3"
        },
        {
            "bufferView" : 17,
            "componentType" : 5126,
            "count" : 192,
            "type" : "VEC3"
        },
        {
            "bufferView" : 18,
            "componentType" : 5126,
            "count" : 192,
            "type" : "VEC2"
        },
        {
            "bufferView" : 19,
            "componentType" : 5123,
            "count" : 372,
            "type" : "SCALAR"
        }
    ],
    "bufferViews" : [
        {
            "buffer" : 0,
            "byteLength" : 18480,
            "byteOffset" : 0
        },
        {
            "buffer" : 0,
            "byteLength" : 18480,
            "byteOffset" : 18480
        },
        {
            "buffer" : 0,
            "byteLength" : 12320,
            "byteOffset" : 36960
        },
        {
            "buffer" : 0,
            "byteLength" : 7584,
            "byteOffset" : 49280
        },
        {
            "buffer" : 0,
            "byteLength" : 2976,
            "byteOffset" : 56864
        },
        {
            "buffer" : 0,
            "byteLength" : 2976,
            "byteOffset" : 59840
        },
        {
            "buffer" : 0,
            "byteLength" : 1984,
            "byteOffset" : 62816
        },
        {
            "buffer" : 0,
            "byteLength" : 936,
            "byteOffset" : 64800
        },
        {
            "buffer" : 0,
            "byteLength" : 9216,
            "byteOffset" : 65736
        },
        {
            "buffer" : 0,
            "byteLength" : 9216,
            "byteOffset" : 74952
        },
        {
            "buffer" : 0,
            "byteLength" : 6144,
            "byteOffset" : 84168
        },
        {
            "buffer" : 0,
            "byteLength" : 2976,
            "byteOffset" : 90312
        },
        {
            "buffer" : 0,
            "byteLength" : 11928,
            "byteOffset" : 93288
        },
        {
            "buffer" : 0,
            "byteLength" : 11928,
            "byteOffset" : 105216
        },
        {
            "buffer" : 0,
            "byteLength" : 7952,
            "byteOffset" : 117144
        },
        {
            "buffer" : 0,
            "byteLength" : 3336,
            "byteOffset" : 125096
        },
        {
            "buffer" : 0,
            "byteLength" : 2304,
            "byteOffset" : 128432
        },
        {
            "buffer" : 0,
            "byteLength" : 2304,
            "byteOffset" : 130736
        },
        {
            "buffer" : 0,
            "byteLength" : 1536,
            "byteOffset" : 133040
        },
        {
            "buffer" : 0,
            "byteLength" : 744,
            "byteOffset" : 134576
        }
    ],
    "buffers" : [
        {
            "byteLength" : 135320,
            "uri" : "data:application/octet-stream;base64,"
        }
    ]
}
